<svg width="4654" height="669" viewBox="0 0 4654 669" fill="none" xmlns="http://www.w3.org/2000/svg">
<path d="M4282.5 241.5C4327.26 238.279 4368.59 248.446 4406.5 272C4441.19 295.746 4461.69 328.579 4468 370.5C4474.78 412.518 4469.44 452.851 4452 491.5C4436.78 520.387 4414.61 542.22 4385.5 557C4320.08 587.637 4256.74 583.97 4195.5 546C4157.14 518.812 4135.64 481.645 4131 434.5C4122.72 323.637 4173.22 259.304 4282.5 241.5ZM4355 361.5C4342.44 333.144 4320.6 320.478 4289.5 323.5C4267.51 328.305 4252.35 341.305 4244 362.5C4234.11 393.479 4234.11 424.479 4244 455.5C4249.44 471.222 4259.6 482.722 4274.5 490C4319.73 503.075 4348.23 486.908 4360 441.5C4362.4 423.909 4363.07 406.242 4362 388.5C4360.76 379.21 4358.43 370.21 4355 361.5Z" fill="#B2CEF3"/>
<path fill-rule="evenodd" clip-rule="evenodd" d="M4108.5 243.5C4114.83 243.5 4121.17 243.5 4127.5 243.5C4127.5 277.833 4127.5 312.167 4127.5 346.5C4111.81 345.126 4096.15 345.293 4080.5 347C4052.68 352.154 4036.18 368.654 4031 396.5C4029.29 405.42 4028.29 414.42 4028 423.5C4027.5 471.832 4027.33 520.166 4027.5 568.5C3993.83 568.5 3960.17 568.5 3926.5 568.5C3926.5 462.833 3926.5 357.167 3926.5 251.5C3959.5 251.5 3992.5 251.5 4025.5 251.5C4025.33 266.837 4025.5 282.17 4026 297.5C4044.8 266.028 4072.3 248.028 4108.5 243.5Z" fill="#B2CEF3"/>
<path d="M3731.5 241.999C3773.51 238.898 3811.51 249.565 3845.5 273.999C3868.08 291.993 3883.58 314.827 3892 342.499C3899.02 367.001 3902.85 392.002 3903.5 417.499V437.499H3687.5C3687.22 439.414 3687.55 441.08 3688.5 442.499C3694.81 494.327 3723.14 513.16 3773.5 498.999C3786.01 492.807 3795.01 483.307 3800.5 470.499H3898.5V473.499C3889.79 515.703 3865.79 545.536 3826.5 562.999C3781.81 580.133 3736.14 583.133 3689.5 571.999C3629.09 554.245 3594.26 514.078 3585 451.499C3578.32 411.663 3582.32 372.995 3597 335.499C3623.67 278.553 3668.51 247.385 3731.5 241.999ZM3802.5 377.499C3799.37 333.374 3775.71 312.707 3731.5 315.499C3725.33 317.287 3719.33 319.787 3713.5 322.999C3695.28 336.404 3685.61 354.571 3684.5 377.499H3802.5Z" fill="#B2CEF3"/>
<path fill-rule="evenodd" clip-rule="evenodd" d="M3410.5 240.5C3453.79 237.815 3492.46 249.648 3526.5 276C3553.64 300.439 3568.3 330.939 3570.5 367.5C3535.83 367.5 3501.17 367.5 3466.5 367.5C3459.45 332.798 3438.78 320.298 3404.5 330C3391.76 335.602 3383.26 345.102 3379 358.5C3366.67 393.081 3366.34 427.748 3378 462.5C3389.67 488.19 3409.5 498.357 3437.5 493C3452.01 487.823 3460.84 477.656 3464 462.5C3465.64 457.598 3466.81 452.598 3467.5 447.5C3501.83 447.5 3536.17 447.5 3570.5 447.5C3567.18 486.638 3551.18 519.471 3522.5 546C3493.55 568.204 3460.72 579.037 3424 578.5C3381.36 579.173 3343.19 566.673 3309.5 541C3288.94 522.066 3275.44 498.899 3269 471.5C3261.6 436.69 3260.6 401.69 3266 366.5C3280 299.497 3320.5 258.664 3387.5 244C3395.35 243.065 3403.01 241.898 3410.5 240.5Z" fill="#B2CEF3"/>
<path d="M2978.5 241.999C3020.51 238.898 3058.51 249.565 3092.5 273.999C3115.08 291.993 3130.58 314.827 3139 342.499C3146.02 367.001 3149.85 392.002 3150.5 417.499V437.499H2934.5C2934.22 439.414 2934.55 441.08 2935.5 442.499C2941.81 494.327 2970.14 513.16 3020.5 498.999C3033.01 492.807 3042.01 483.307 3047.5 470.499H3145.5V473.499C3136.79 515.703 3112.79 545.536 3073.5 562.999C3028.81 580.133 2983.14 583.133 2936.5 571.999C2876.09 554.245 2841.26 514.078 2832 451.499C2825.32 411.663 2829.32 372.995 2844 335.499C2870.67 278.553 2915.51 247.385 2978.5 241.999ZM3049.5 377.499C3046.37 333.374 3022.71 312.707 2978.5 315.499C2972.33 317.287 2966.33 319.787 2960.5 322.999C2942.28 336.404 2932.61 354.571 2931.5 377.499H3049.5Z" fill="#B2CEF3"/>
<path d="M2806.5 568.5H2704.5C2704.67 555.829 2704.5 543.162 2704 530.5C2682.73 562.471 2652.73 577.804 2614 576.5C2566.82 576.617 2532.15 555.95 2510 514.5C2492.94 482.545 2484.77 448.378 2485.5 412C2484.69 379.027 2490.19 347.194 2502 316.5C2517.26 284.246 2541.76 262.079 2575.5 250C2605.28 239.812 2634.94 240.146 2664.5 251C2680.82 258.815 2693.82 270.315 2703.5 285.5C2703.56 286.043 2703.89 286.376 2704.5 286.5C2705.5 238.171 2705.83 189.838 2705.5 141.5H2806.5V568.5ZM2699 363.5C2687.79 337.308 2667.96 325.642 2639.5 328.5C2630.7 330.497 2622.7 334.33 2615.5 340C2601.33 354.184 2593.49 371.351 2592 391.5C2589.77 415.119 2592.44 438.119 2600 460.5C2605.83 474.333 2615.67 484.167 2629.5 490C2660.79 498.43 2683.63 488.264 2698 459.5C2710.24 427.613 2711.5 395.5 2699 363.5Z" fill="#B2CEF3"/>
<path fill-rule="evenodd" clip-rule="evenodd" d="M2303.5 242.5C2334.7 240.589 2365.03 244.756 2394.5 255C2422.66 265.169 2443.16 283.669 2456 310.5C2460.21 321.086 2462.04 332.086 2461.5 343.5C2428.16 343.833 2394.83 343.5 2361.5 342.5C2357.8 324.968 2347.14 314.801 2329.5 312C2321.17 311.333 2312.83 311.333 2304.5 312C2292.75 313.937 2284.92 320.437 2281 331.5C2279.97 339.083 2282.47 345.25 2288.5 350C2296.68 354.758 2305.35 358.424 2314.5 361C2349.92 367.815 2384.25 378.148 2417.5 392C2461.79 411.747 2479.29 445.58 2470 493.5C2461.78 525.38 2442.94 548.546 2413.5 563C2384.23 575.119 2353.73 580.285 2322 578.5C2293.83 578.557 2266.33 574.39 2239.5 566C2198.82 551.983 2174.65 523.817 2167 481.5C2166.5 477.848 2166.33 474.182 2166.5 470.5C2201.17 470.167 2235.84 470.5 2270.5 471.5C2272.6 481.203 2276.93 489.703 2283.5 497C2290.95 502.484 2299.28 505.817 2308.5 507C2325.24 509.362 2341.24 507.029 2356.5 500C2365.79 493.801 2368.96 485.301 2366 474.5C2362.66 468.825 2357.82 464.992 2351.5 463C2317.16 454.581 2283.16 444.914 2249.5 434C2230.5 427.631 2213.5 417.965 2198.5 405C2179.82 384.813 2172.65 360.98 2177 333.5C2183.87 303.92 2200.37 281.42 2226.5 266C2250.65 252.779 2276.32 244.945 2303.5 242.5Z" fill="#B2CEF3"/>
<path d="M1982.5 241.999C2024.51 238.898 2062.51 249.565 2096.5 273.999C2119.08 291.993 2134.58 314.827 2143 342.499C2150.02 367.001 2153.85 392.002 2154.5 417.499V437.499H1938.5C1938.22 439.414 1938.55 441.08 1939.5 442.499C1945.81 494.327 1974.14 513.16 2024.5 498.999C2037.01 492.807 2046.01 483.307 2051.5 470.499H2149.5V473.499C2140.79 515.703 2116.79 545.536 2077.5 562.999C2032.81 580.133 1987.14 583.133 1940.5 571.999C1880.09 554.245 1845.26 514.078 1836 451.499C1829.32 411.663 1833.32 372.995 1848 335.499C1874.67 278.553 1919.51 247.385 1982.5 241.999ZM2053.5 377.499C2050.37 333.374 2026.71 312.707 1982.5 315.499C1976.33 317.287 1970.33 319.787 1964.5 322.999C1946.28 336.404 1936.61 354.571 1935.5 377.499H2053.5Z" fill="#B2CEF3"/>
<path d="M1810.5 568.5H1708.5C1708.67 555.829 1708.5 543.162 1708 530.5C1686.73 562.471 1656.73 577.804 1618 576.5C1570.82 576.617 1536.15 555.95 1514 514.5C1496.94 482.545 1488.77 448.378 1489.5 412C1488.69 379.027 1494.19 347.194 1506 316.5C1521.26 284.246 1545.76 262.079 1579.5 250C1609.28 239.812 1638.94 240.146 1668.5 251C1684.82 258.815 1697.82 270.315 1707.5 285.5C1707.56 286.043 1707.89 286.376 1708.5 286.5C1709.5 238.171 1709.83 189.838 1709.5 141.5H1810.5V568.5ZM1703 363.5C1691.79 337.308 1671.96 325.642 1643.5 328.5C1634.7 330.497 1626.7 334.33 1619.5 340C1605.33 354.184 1597.49 371.351 1596 391.5C1593.77 415.119 1596.44 438.119 1604 460.5C1609.83 474.333 1619.67 484.167 1633.5 490C1664.79 498.43 1687.63 488.264 1702 459.5C1714.24 427.613 1715 395 1703 363.5Z" fill="#B2CEF3"/>
<path fill-rule="evenodd" clip-rule="evenodd" d="M1361.5 409.5C1362.49 414.64 1362.82 419.974 1362.5 425.5C1361.62 462.4 1360.62 499.233 1359.5 536C1285.01 570.981 1207.34 580.315 1126.5 564C1089.8 557.071 1058.3 540.571 1032 514.5C1010.11 487.867 997.778 457.201 995 422.5C990.253 360.718 999.919 301.384 1024 244.5C1062.57 163.619 1125.74 113.453 1213.5 94.0002C1266.59 82.336 1319.59 82.6693 1372.5 95.0002C1392.54 100.188 1411.2 108.355 1428.5 119.5C1429.61 120.723 1429.78 122.056 1429 123.5C1413.99 163.374 1398.49 203.04 1382.5 242.5C1344.16 218.929 1302.49 208.763 1257.5 212C1228.03 218.139 1205.86 234.305 1191 260.5C1180.64 278.58 1173.64 297.913 1170 318.5C1164.19 347.349 1163.19 376.349 1167 405.5C1171.91 426.744 1185.08 439.578 1206.5 444C1262.27 450.548 1313.93 439.048 1361.5 409.5Z" fill="#F6EEEE"/>
<path fill-rule="evenodd" clip-rule="evenodd" d="M728.5 216.5C729.404 215.791 729.737 214.791 729.5 213.5C690.167 213.5 650.833 213.5 611.5 213.5C611.5 212.5 611.5 211.5 611.5 210.5C618.085 171.229 625.085 132.062 632.5 93C766.5 92.5 900.5 92.3333 1034.5 92.5C1027.07 133.096 1020.07 173.763 1013.5 214.5C973.833 214.5 934.167 214.5 894.5 214.5C874.281 331.48 853.948 448.48 833.5 565.5C778.167 565.5 722.833 565.5 667.5 565.5C687.369 449.08 707.703 332.747 728.5 216.5Z" fill="#F6EEEE"/>
<path fill-rule="evenodd" clip-rule="evenodd" d="M249.5 92.5C373.834 92.3333 498.167 92.5 622.5 93C615.084 133.408 608.084 173.908 601.5 214.5C532.497 214.167 463.497 214.5 394.5 215.5C389.652 240.076 385.318 264.742 381.5 289.5C425.5 289.5 469.5 289.5 513.5 289.5C507.391 325.818 501.391 362.151 495.5 398.5C450.833 398.5 406.167 398.5 361.5 398.5C351.94 454.194 342.273 509.861 332.5 565.5C277.167 565.5 221.833 565.5 166.5 565.5C194.017 407.776 221.683 250.109 249.5 92.5Z" fill="#F6EEEE"/>
</svg>
