<svg width="1250" height="819" viewBox="0 0 1250 819" fill="none" xmlns="http://www.w3.org/2000/svg">
<path d="M491.768 25H553.073L562.785 25.6074L563.391 28.0371L563.998 69.9494L580.387 75.4163L596.168 82.0979L611.95 89.387L620.448 93.639L622.876 93.0316L628.945 87.5648L650.797 65.6975L654.439 62.6603L659.294 66.9123L663.543 71.7717L672.041 80.8831L679.932 88.7796L684.181 93.639L696.32 105.788L701.176 110.039L707.246 116.114L712.102 120.366L719.385 127.655L717.564 130.692L690.857 157.419L689.036 159.848L689.643 163.493L696.927 178.679L703.604 193.257L709.067 207.835L712.102 216.946L713.316 218.769H749.734L756.411 219.376L757.018 223.021V306.845L756.411 312.312L712.709 312.919L710.281 317.779L703.604 336.609L696.927 352.402L689.643 367.588L688.429 370.625L693.285 376.699L706.032 389.455L710.888 393.707L716.351 399.174L718.171 402.818L712.709 409.5L701.783 420.434L696.927 424.686L687.215 434.404L684.181 439.264V441.694H1125.46L1152.77 442.301L1165.52 443.516L1177.05 446.553L1188.58 452.02L1197.69 458.094L1204.97 464.776L1209.83 470.243L1215.9 480.569L1219.54 489.073L1222.57 498.791L1223.79 503.651L1224.39 513.977L1225 545.563V683.449L1223.79 698.027L1220.75 708.961L1215.9 719.894L1211.04 727.791L1205.58 733.865L1198.29 740.547L1190.4 746.013L1180.08 751.48L1169.76 755.125L1160.66 756.947L1154.59 757.555L1138.2 758.162L1135.17 758.769V783.674L1133.95 789.141L1129.7 792.785L1123.63 794H1033.19L982.208 793.393H925.152L821.965 794H766.123L760.053 792.178L756.411 788.533L755.804 786.711L755.197 758.769L753.983 758.162L101.48 757.555L88.7329 756.34L74.7724 753.303L62.6328 747.836L54.1351 742.369L46.2443 735.687L41.9954 731.435L35.9256 722.324L29.8558 709.568L26.214 695.597L25.607 689.523L25 667.048V554.675L25.607 514.585L26.8209 501.829L29.2489 492.11L34.1047 480.569L39.5675 471.457L43.8164 465.991L49.2792 460.524L59.5979 453.235L68.7026 448.375L79.6282 444.731L91.7678 442.908L100.873 442.301L134.863 441.694H290.25L346.7 442.301L348.52 441.694L347.914 437.442L343.665 432.582L319.385 408.285L315.744 403.426L315.137 400.996L318.778 395.529L325.455 390.062L333.346 382.773L338.202 377.914H339.416L340.63 375.484L343.665 371.84V367.588L336.381 351.795L327.883 331.75L321.206 313.527L319.992 312.919L278.718 312.312L276.29 311.705V219.983L276.897 219.376L286.002 218.769L319.992 218.161L321.813 216.339L328.49 196.901L338.809 175.034L344.879 161.671L343.665 158.633L339.416 153.774L334.56 148.915L329.704 144.663L320.599 135.551L316.351 130.085L315.744 126.44L319.385 121.581L325.455 116.114L330.311 111.862L335.774 106.395L340.63 102.143L358.232 84.5276L362.481 79.6682L377.656 64.4826L380.69 62.6603L390.402 72.9866L395.865 79.0608L408.612 91.8167L410.432 93.0316L415.288 92.4242L432.284 83.9202L453.528 75.4163L467.489 70.5569L469.31 69.342L469.917 26.2148L470.524 25.6074L491.768 25Z" fill="#FCFDFD"/>
<mask id="path-2-outside-1_41_30" maskUnits="userSpaceOnUse" x="0" y="0" width="1250" height="819" fill="black">
<rect fill="white" width="1250" height="819"/>
<path d="M491.768 25H553.073L562.785 25.6074L563.391 28.0371L563.998 69.9494L580.387 75.4163L596.168 82.0979L611.95 89.387L620.448 93.639L622.876 93.0316L628.945 87.5648L650.797 65.6975L654.439 62.6603L659.294 66.9123L663.543 71.7717L672.041 80.8831L679.932 88.7796L684.181 93.639L696.32 105.788L701.176 110.039L707.246 116.114L712.102 120.366L719.385 127.655L717.564 130.692L690.857 157.419L689.036 159.848L689.643 163.493L696.927 178.679L703.604 193.257L709.067 207.835L712.102 216.946L713.316 218.769H749.734L756.411 219.376L757.018 223.021V306.845L756.411 312.312L712.709 312.919L710.281 317.779L703.604 336.609L696.927 352.402L689.643 367.588L688.429 370.625L693.285 376.699L706.032 389.455L710.888 393.707L716.351 399.174L718.171 402.818L712.709 409.5L701.783 420.434L696.927 424.686L687.215 434.404L684.181 439.264V441.694H1125.46L1152.77 442.301L1165.52 443.516L1177.05 446.553L1188.58 452.02L1197.69 458.094L1204.97 464.776L1209.83 470.243L1215.9 480.569L1219.54 489.073L1222.57 498.791L1223.79 503.651L1224.39 513.977L1225 545.563V683.449L1223.79 698.027L1220.75 708.961L1215.9 719.894L1211.04 727.791L1205.58 733.865L1198.29 740.547L1190.4 746.013L1180.08 751.48L1169.76 755.125L1160.66 756.947L1154.59 757.555L1138.2 758.162L1135.17 758.769V783.674L1133.95 789.141L1129.7 792.785L1123.63 794H1033.19L982.208 793.393H925.152L821.965 794H766.123L760.053 792.178L756.411 788.533L755.804 786.711L755.197 758.769L753.983 758.162L101.48 757.555L88.7329 756.34L74.7724 753.303L62.6328 747.836L54.1351 742.369L46.2443 735.687L41.9954 731.435L35.9256 722.324L29.8558 709.568L26.214 695.597L25.607 689.523L25 667.048V554.675L25.607 514.585L26.8209 501.829L29.2489 492.11L34.1047 480.569L39.5675 471.457L43.8164 465.991L49.2792 460.524L59.5979 453.235L68.7026 448.375L79.6282 444.731L91.7678 442.908L100.873 442.301L134.863 441.694H290.25L346.7 442.301L348.52 441.694L347.914 437.442L343.665 432.582L319.385 408.285L315.744 403.426L315.137 400.996L318.778 395.529L325.455 390.062L333.346 382.773L338.202 377.914H339.416L340.63 375.484L343.665 371.84V367.588L336.381 351.795L327.883 331.75L321.206 313.527L319.992 312.919L278.718 312.312L276.29 311.705V219.983L276.897 219.376L286.002 218.769L319.992 218.161L321.813 216.339L328.49 196.901L338.809 175.034L344.879 161.671L343.665 158.633L339.416 153.774L334.56 148.915L329.704 144.663L320.599 135.551L316.351 130.085L315.744 126.44L319.385 121.581L325.455 116.114L330.311 111.862L335.774 106.395L340.63 102.143L358.232 84.5276L362.481 79.6682L377.656 64.4826L380.69 62.6603L390.402 72.9866L395.865 79.0608L408.612 91.8167L410.432 93.0316L415.288 92.4242L432.284 83.9202L453.528 75.4163L467.489 70.5569L469.31 69.342L469.917 26.2148L470.524 25.6074L491.768 25ZM471.13 116.721L458.991 117.936L446.244 120.973L434.105 125.225L421.965 130.692L411.039 136.766L401.935 142.84L394.044 148.915L388.581 153.774L381.904 162.885L373.407 175.641L364.909 190.22L360.053 202.368L356.411 213.909L353.983 223.628L350.948 241.243L349.734 253.999V276.474L352.162 291.66L355.197 303.201L358.839 312.919L363.695 323.246L370.372 333.572L377.049 342.076L384.939 350.58L389.188 355.439L397.686 362.121L409.219 368.195L423.786 373.662L434.712 376.699L441.995 377.914L451.1 393.707L452.314 397.352L451.707 400.996L443.816 412.537L434.712 425.9L423.786 442.301L422.572 443.516L413.467 439.264H410.432L407.398 442.908L404.363 445.946L401.328 448.375L397.079 453.235L387.974 461.131L383.725 465.991L380.083 470.243L101.48 470.85L93.5888 472.065L84.4841 475.102L78.4143 478.746L71.7375 484.213L67.4886 488.465L62.0258 496.362L58.3839 503.651L55.956 513.37L55.349 517.622V683.449L57.7769 695.597L63.2398 707.138L69.3096 715.035L75.3794 720.502L83.2701 725.361L92.3748 729.006L102.693 730.828H752.769L753.983 730.22L754.59 701.064L757.018 696.205L760.053 693.775L762.481 692.56L766.123 691.953H1124.85L1130.31 693.167L1134.56 696.812L1136.38 701.064L1136.99 730.22L1137.59 730.828H1149.13L1159.45 728.398L1169.16 724.146L1175.23 719.894L1181.3 714.427L1184.94 710.175L1189.8 702.279L1192.83 693.775L1194.65 685.271V515.799L1192.83 507.295L1189.8 499.399L1185.55 492.11L1178.87 484.821L1173.41 479.961L1164.91 475.102L1157.02 472.065L1151.56 470.85L653.832 470.243L643.513 459.916L637.443 455.057L622.269 439.871L619.234 439.264L613.164 442.908L608.915 445.338L606.487 439.264L594.347 394.922L590.706 380.344L584.029 353.009L582.815 349.972L583.422 346.935L591.313 334.787L595.561 328.105L603.452 318.386L609.522 309.882L618.02 297.734L625.91 286.8L633.194 277.081L635.622 274.044L645.334 265.54L656.259 260.073L659.901 260.681L662.936 263.111H665.971L674.469 253.392L678.718 249.747L680.539 246.103L675.076 241.243L667.792 237.599L665.364 238.206L663.543 241.243L659.901 242.458H655.652V239.421L654.439 238.206L650.797 238.814L645.334 241.851L644.727 243.673L645.334 247.318L641.692 249.747L640.478 250.962L635.622 250.355L632.587 253.392L630.159 257.644V258.859L634.408 260.681L633.194 265.54L630.159 269.185L627.124 270.4H620.448L616.806 268.577L613.164 264.325L611.343 260.681L610.736 254.607L611.95 248.532L614.985 241.243L618.627 235.776L623.483 230.917L630.766 227.273L639.264 224.843L644.12 224.235H659.294L669.006 226.665L678.718 231.524L681.146 232.132L679.932 227.88L679.325 224.843L681.753 220.591L681.146 218.161L671.434 212.694L662.936 207.227L662.329 206.62H650.19L628.945 207.835L633.194 202.976L638.05 197.509L651.404 198.116L663.543 199.938L667.185 201.761L682.36 216.946H684.788L684.181 213.909L678.111 207.835L673.862 202.976L668.399 197.509L665.364 195.686L652.618 193.864L633.194 192.042L624.09 189.005L616.199 185.968L565.212 185.36L548.217 182.93L540.933 180.501L539.719 177.464L542.147 162.885L543.361 153.167V149.522L532.436 136.159L525.152 127.655L520.296 123.403L510.584 119.758L497.231 117.329L488.733 116.721H471.13Z"/>
</mask>
<path d="M491.768 25H553.073L562.785 25.6074L563.391 28.0371L563.998 69.9494L580.387 75.4163L596.168 82.0979L611.95 89.387L620.448 93.639L622.876 93.0316L628.945 87.5648L650.797 65.6975L654.439 62.6603L659.294 66.9123L663.543 71.7717L672.041 80.8831L679.932 88.7796L684.181 93.639L696.32 105.788L701.176 110.039L707.246 116.114L712.102 120.366L719.385 127.655L717.564 130.692L690.857 157.419L689.036 159.848L689.643 163.493L696.927 178.679L703.604 193.257L709.067 207.835L712.102 216.946L713.316 218.769H749.734L756.411 219.376L757.018 223.021V306.845L756.411 312.312L712.709 312.919L710.281 317.779L703.604 336.609L696.927 352.402L689.643 367.588L688.429 370.625L693.285 376.699L706.032 389.455L710.888 393.707L716.351 399.174L718.171 402.818L712.709 409.5L701.783 420.434L696.927 424.686L687.215 434.404L684.181 439.264V441.694H1125.46L1152.77 442.301L1165.52 443.516L1177.05 446.553L1188.58 452.02L1197.69 458.094L1204.97 464.776L1209.83 470.243L1215.9 480.569L1219.54 489.073L1222.57 498.791L1223.79 503.651L1224.39 513.977L1225 545.563V683.449L1223.79 698.027L1220.75 708.961L1215.9 719.894L1211.04 727.791L1205.58 733.865L1198.29 740.547L1190.4 746.013L1180.08 751.48L1169.76 755.125L1160.66 756.947L1154.59 757.555L1138.2 758.162L1135.17 758.769V783.674L1133.95 789.141L1129.7 792.785L1123.63 794H1033.19L982.208 793.393H925.152L821.965 794H766.123L760.053 792.178L756.411 788.533L755.804 786.711L755.197 758.769L753.983 758.162L101.48 757.555L88.7329 756.34L74.7724 753.303L62.6328 747.836L54.1351 742.369L46.2443 735.687L41.9954 731.435L35.9256 722.324L29.8558 709.568L26.214 695.597L25.607 689.523L25 667.048V554.675L25.607 514.585L26.8209 501.829L29.2489 492.11L34.1047 480.569L39.5675 471.457L43.8164 465.991L49.2792 460.524L59.5979 453.235L68.7026 448.375L79.6282 444.731L91.7678 442.908L100.873 442.301L134.863 441.694H290.25L346.7 442.301L348.52 441.694L347.914 437.442L343.665 432.582L319.385 408.285L315.744 403.426L315.137 400.996L318.778 395.529L325.455 390.062L333.346 382.773L338.202 377.914H339.416L340.63 375.484L343.665 371.84V367.588L336.381 351.795L327.883 331.75L321.206 313.527L319.992 312.919L278.718 312.312L276.29 311.705V219.983L276.897 219.376L286.002 218.769L319.992 218.161L321.813 216.339L328.49 196.901L338.809 175.034L344.879 161.671L343.665 158.633L339.416 153.774L334.56 148.915L329.704 144.663L320.599 135.551L316.351 130.085L315.744 126.44L319.385 121.581L325.455 116.114L330.311 111.862L335.774 106.395L340.63 102.143L358.232 84.5276L362.481 79.6682L377.656 64.4826L380.69 62.6603L390.402 72.9866L395.865 79.0608L408.612 91.8167L410.432 93.0316L415.288 92.4242L432.284 83.9202L453.528 75.4163L467.489 70.5569L469.31 69.342L469.917 26.2148L470.524 25.6074L491.768 25ZM471.13 116.721L458.991 117.936L446.244 120.973L434.105 125.225L421.965 130.692L411.039 136.766L401.935 142.84L394.044 148.915L388.581 153.774L381.904 162.885L373.407 175.641L364.909 190.22L360.053 202.368L356.411 213.909L353.983 223.628L350.948 241.243L349.734 253.999V276.474L352.162 291.66L355.197 303.201L358.839 312.919L363.695 323.246L370.372 333.572L377.049 342.076L384.939 350.58L389.188 355.439L397.686 362.121L409.219 368.195L423.786 373.662L434.712 376.699L441.995 377.914L451.1 393.707L452.314 397.352L451.707 400.996L443.816 412.537L434.712 425.9L423.786 442.301L422.572 443.516L413.467 439.264H410.432L407.398 442.908L404.363 445.946L401.328 448.375L397.079 453.235L387.974 461.131L383.725 465.991L380.083 470.243L101.48 470.85L93.5888 472.065L84.4841 475.102L78.4143 478.746L71.7375 484.213L67.4886 488.465L62.0258 496.362L58.3839 503.651L55.956 513.37L55.349 517.622V683.449L57.7769 695.597L63.2398 707.138L69.3096 715.035L75.3794 720.502L83.2701 725.361L92.3748 729.006L102.693 730.828H752.769L753.983 730.22L754.59 701.064L757.018 696.205L760.053 693.775L762.481 692.56L766.123 691.953H1124.85L1130.31 693.167L1134.56 696.812L1136.38 701.064L1136.99 730.22L1137.59 730.828H1149.13L1159.45 728.398L1169.16 724.146L1175.23 719.894L1181.3 714.427L1184.94 710.175L1189.8 702.279L1192.83 693.775L1194.65 685.271V515.799L1192.83 507.295L1189.8 499.399L1185.55 492.11L1178.87 484.821L1173.41 479.961L1164.91 475.102L1157.02 472.065L1151.56 470.85L653.832 470.243L643.513 459.916L637.443 455.057L622.269 439.871L619.234 439.264L613.164 442.908L608.915 445.338L606.487 439.264L594.347 394.922L590.706 380.344L584.029 353.009L582.815 349.972L583.422 346.935L591.313 334.787L595.561 328.105L603.452 318.386L609.522 309.882L618.02 297.734L625.91 286.8L633.194 277.081L635.622 274.044L645.334 265.54L656.259 260.073L659.901 260.681L662.936 263.111H665.971L674.469 253.392L678.718 249.747L680.539 246.103L675.076 241.243L667.792 237.599L665.364 238.206L663.543 241.243L659.901 242.458H655.652V239.421L654.439 238.206L650.797 238.814L645.334 241.851L644.727 243.673L645.334 247.318L641.692 249.747L640.478 250.962L635.622 250.355L632.587 253.392L630.159 257.644V258.859L634.408 260.681L633.194 265.54L630.159 269.185L627.124 270.4H620.448L616.806 268.577L613.164 264.325L611.343 260.681L610.736 254.607L611.95 248.532L614.985 241.243L618.627 235.776L623.483 230.917L630.766 227.273L639.264 224.843L644.12 224.235H659.294L669.006 226.665L678.718 231.524L681.146 232.132L679.932 227.88L679.325 224.843L681.753 220.591L681.146 218.161L671.434 212.694L662.936 207.227L662.329 206.62H650.19L628.945 207.835L633.194 202.976L638.05 197.509L651.404 198.116L663.543 199.938L667.185 201.761L682.36 216.946H684.788L684.181 213.909L678.111 207.835L673.862 202.976L668.399 197.509L665.364 195.686L652.618 193.864L633.194 192.042L624.09 189.005L616.199 185.968L565.212 185.36L548.217 182.93L540.933 180.501L539.719 177.464L542.147 162.885L543.361 153.167V149.522L532.436 136.159L525.152 127.655L520.296 123.403L510.584 119.758L497.231 117.329L488.733 116.721H471.13Z" fill="#142A68"/>
<path d="M491.768 25H553.073L562.785 25.6074L563.391 28.0371L563.998 69.9494L580.387 75.4163L596.168 82.0979L611.95 89.387L620.448 93.639L622.876 93.0316L628.945 87.5648L650.797 65.6975L654.439 62.6603L659.294 66.9123L663.543 71.7717L672.041 80.8831L679.932 88.7796L684.181 93.639L696.32 105.788L701.176 110.039L707.246 116.114L712.102 120.366L719.385 127.655L717.564 130.692L690.857 157.419L689.036 159.848L689.643 163.493L696.927 178.679L703.604 193.257L709.067 207.835L712.102 216.946L713.316 218.769H749.734L756.411 219.376L757.018 223.021V306.845L756.411 312.312L712.709 312.919L710.281 317.779L703.604 336.609L696.927 352.402L689.643 367.588L688.429 370.625L693.285 376.699L706.032 389.455L710.888 393.707L716.351 399.174L718.171 402.818L712.709 409.5L701.783 420.434L696.927 424.686L687.215 434.404L684.181 439.264V441.694H1125.46L1152.77 442.301L1165.52 443.516L1177.05 446.553L1188.58 452.02L1197.69 458.094L1204.97 464.776L1209.83 470.243L1215.9 480.569L1219.54 489.073L1222.57 498.791L1223.79 503.651L1224.39 513.977L1225 545.563V683.449L1223.79 698.027L1220.75 708.961L1215.9 719.894L1211.04 727.791L1205.58 733.865L1198.29 740.547L1190.4 746.013L1180.08 751.48L1169.76 755.125L1160.66 756.947L1154.59 757.555L1138.2 758.162L1135.17 758.769V783.674L1133.95 789.141L1129.7 792.785L1123.63 794H1033.19L982.208 793.393H925.152L821.965 794H766.123L760.053 792.178L756.411 788.533L755.804 786.711L755.197 758.769L753.983 758.162L101.48 757.555L88.7329 756.34L74.7724 753.303L62.6328 747.836L54.1351 742.369L46.2443 735.687L41.9954 731.435L35.9256 722.324L29.8558 709.568L26.214 695.597L25.607 689.523L25 667.048V554.675L25.607 514.585L26.8209 501.829L29.2489 492.11L34.1047 480.569L39.5675 471.457L43.8164 465.991L49.2792 460.524L59.5979 453.235L68.7026 448.375L79.6282 444.731L91.7678 442.908L100.873 442.301L134.863 441.694H290.25L346.7 442.301L348.52 441.694L347.914 437.442L343.665 432.582L319.385 408.285L315.744 403.426L315.137 400.996L318.778 395.529L325.455 390.062L333.346 382.773L338.202 377.914H339.416L340.63 375.484L343.665 371.84V367.588L336.381 351.795L327.883 331.75L321.206 313.527L319.992 312.919L278.718 312.312L276.29 311.705V219.983L276.897 219.376L286.002 218.769L319.992 218.161L321.813 216.339L328.49 196.901L338.809 175.034L344.879 161.671L343.665 158.633L339.416 153.774L334.56 148.915L329.704 144.663L320.599 135.551L316.351 130.085L315.744 126.44L319.385 121.581L325.455 116.114L330.311 111.862L335.774 106.395L340.63 102.143L358.232 84.5276L362.481 79.6682L377.656 64.4826L380.69 62.6603L390.402 72.9866L395.865 79.0608L408.612 91.8167L410.432 93.0316L415.288 92.4242L432.284 83.9202L453.528 75.4163L467.489 70.5569L469.31 69.342L469.917 26.2148L470.524 25.6074L491.768 25ZM471.13 116.721L458.991 117.936L446.244 120.973L434.105 125.225L421.965 130.692L411.039 136.766L401.935 142.84L394.044 148.915L388.581 153.774L381.904 162.885L373.407 175.641L364.909 190.22L360.053 202.368L356.411 213.909L353.983 223.628L350.948 241.243L349.734 253.999V276.474L352.162 291.66L355.197 303.201L358.839 312.919L363.695 323.246L370.372 333.572L377.049 342.076L384.939 350.58L389.188 355.439L397.686 362.121L409.219 368.195L423.786 373.662L434.712 376.699L441.995 377.914L451.1 393.707L452.314 397.352L451.707 400.996L443.816 412.537L434.712 425.9L423.786 442.301L422.572 443.516L413.467 439.264H410.432L407.398 442.908L404.363 445.946L401.328 448.375L397.079 453.235L387.974 461.131L383.725 465.991L380.083 470.243L101.48 470.85L93.5888 472.065L84.4841 475.102L78.4143 478.746L71.7375 484.213L67.4886 488.465L62.0258 496.362L58.3839 503.651L55.956 513.37L55.349 517.622V683.449L57.7769 695.597L63.2398 707.138L69.3096 715.035L75.3794 720.502L83.2701 725.361L92.3748 729.006L102.693 730.828H752.769L753.983 730.22L754.59 701.064L757.018 696.205L760.053 693.775L762.481 692.56L766.123 691.953H1124.85L1130.31 693.167L1134.56 696.812L1136.38 701.064L1136.99 730.22L1137.59 730.828H1149.13L1159.45 728.398L1169.16 724.146L1175.23 719.894L1181.3 714.427L1184.94 710.175L1189.8 702.279L1192.83 693.775L1194.65 685.271V515.799L1192.83 507.295L1189.8 499.399L1185.55 492.11L1178.87 484.821L1173.41 479.961L1164.91 475.102L1157.02 472.065L1151.56 470.85L653.832 470.243L643.513 459.916L637.443 455.057L622.269 439.871L619.234 439.264L613.164 442.908L608.915 445.338L606.487 439.264L594.347 394.922L590.706 380.344L584.029 353.009L582.815 349.972L583.422 346.935L591.313 334.787L595.561 328.105L603.452 318.386L609.522 309.882L618.02 297.734L625.91 286.8L633.194 277.081L635.622 274.044L645.334 265.54L656.259 260.073L659.901 260.681L662.936 263.111H665.971L674.469 253.392L678.718 249.747L680.539 246.103L675.076 241.243L667.792 237.599L665.364 238.206L663.543 241.243L659.901 242.458H655.652V239.421L654.439 238.206L650.797 238.814L645.334 241.851L644.727 243.673L645.334 247.318L641.692 249.747L640.478 250.962L635.622 250.355L632.587 253.392L630.159 257.644V258.859L634.408 260.681L633.194 265.54L630.159 269.185L627.124 270.4H620.448L616.806 268.577L613.164 264.325L611.343 260.681L610.736 254.607L611.95 248.532L614.985 241.243L618.627 235.776L623.483 230.917L630.766 227.273L639.264 224.843L644.12 224.235H659.294L669.006 226.665L678.718 231.524L681.146 232.132L679.932 227.88L679.325 224.843L681.753 220.591L681.146 218.161L671.434 212.694L662.936 207.227L662.329 206.62H650.19L628.945 207.835L633.194 202.976L638.05 197.509L651.404 198.116L663.543 199.938L667.185 201.761L682.36 216.946H684.788L684.181 213.909L678.111 207.835L673.862 202.976L668.399 197.509L665.364 195.686L652.618 193.864L633.194 192.042L624.09 189.005L616.199 185.968L565.212 185.36L548.217 182.93L540.933 180.501L539.719 177.464L542.147 162.885L543.361 153.167V149.522L532.436 136.159L525.152 127.655L520.296 123.403L510.584 119.758L497.231 117.329L488.733 116.721H471.13Z" stroke="white" stroke-width="50" mask="url(#path-2-outside-1_41_30)"/>
<path d="M295.713 519.444H352.769L363.695 543.741L381.904 586.261L390.402 607.521L401.327 632.425L411.646 656.722L415.288 666.441L416.502 667.048V520.052L417.109 519.444H472.344L473.558 520.659L476.593 528.555L484.484 546.171L491.768 563.786L498.444 578.972L505.728 596.587L509.37 606.306L508.763 610.558L503.907 624.529L502.693 628.173L477.2 627.566L473.558 620.277L466.274 603.876L457.777 585.046L456.563 580.187H455.349V667.656L454.742 668.263L377.048 667.656L371.585 656.115L365.516 640.929H284.787L279.324 653.078L273.862 665.834L272.648 667.656L232.587 668.263L233.194 664.619L239.871 649.433L250.189 622.099L259.901 599.624L268.399 580.794L279.324 554.675L289.643 530.985L294.499 520.052L295.713 519.444Z" fill="#142A68"/>
<path d="M474.165 134.337H482.056L498.444 136.766L510.584 140.411L516.654 144.055L522.724 150.737L526.365 155.597V156.811L528.793 158.026V162.278L523.937 186.575L522.117 198.116L519.082 199.939L508.156 202.976L502.086 204.191H500.872L500.265 207.835L495.409 218.161H487.519L477.2 219.984L474.772 220.591L472.951 217.554L470.523 212.694L466.881 213.909L455.349 221.198L454.742 224.236L456.563 227.273L457.17 229.095L454.742 233.954L450.493 240.029L448.065 243.066L442.602 241.851L438.353 240.636L437.746 246.103L435.925 250.355L434.711 253.392L433.497 255.214L434.104 258.251L441.388 260.074L443.209 262.503L442.602 263.718V267.97L443.209 270.4V275.867L435.318 280.119L435.925 283.763L441.995 296.519L445.03 295.304L450.493 291.66L452.921 292.267L455.956 295.304L458.991 297.734L461.419 300.164L460.812 304.416L458.384 310.49L465.06 312.312L472.951 314.134L475.379 315.349L478.414 309.275L479.628 305.63L482.663 304.416H488.126L494.802 302.593L498.444 308.668L499.051 310.49L504.514 309.882L511.191 308.06L515.44 307.453L514.833 301.986L514.226 297.734L517.868 288.623L520.296 284.978L530.007 281.333H534.863L551.859 298.341L550.645 303.808L546.396 315.349L542.147 325.068L540.326 328.713L539.112 332.965L533.042 338.431L520.903 346.328L511.191 351.187L494.802 356.654L484.484 359.084L471.737 360.906H453.528L438.353 358.476L429.249 356.047L417.716 351.795L408.004 346.935L401.327 342.076L394.044 335.394L386.76 327.498L380.083 318.386L374.013 306.845L369.764 295.304L366.73 283.763L365.516 273.437V252.177L366.73 239.421L370.371 221.198L374.013 208.443L379.476 195.687L385.546 184.146L391.009 176.249L398.293 167.138H399.507V165.923L406.183 160.456L414.681 154.382L428.035 147.093L438.353 142.233L452.921 137.374L462.025 135.552L474.165 134.337Z" fill="#142A68"/>
<path d="M876.594 518.836H885.091L907.55 520.051L923.331 522.481L933.65 525.518L943.968 530.377L948.217 534.022L952.466 540.704L956.108 549.208L959.143 561.964L960.357 569.253L960.964 575.934V606.306L959.75 620.884L956.715 635.462L953.073 645.181L948.824 651.862L945.182 656.114L936.685 660.974L930.615 663.404L916.654 665.833L892.375 667.656H860.812L838.961 665.833L825.607 663.404L817.11 660.366L810.433 655.507L804.97 649.433L800.721 640.929L798.293 630.603L796.472 616.024L795.865 608.735V585.653L797.079 568.645L799.507 552.245L802.542 543.133L806.184 536.452L810.433 531.592L815.289 528.555L829.856 523.696L841.996 521.266L861.419 519.444L876.594 518.836Z" fill="#142A68"/>
<path d="M628.338 520.659H733.345L746.699 522.481L755.804 524.911L765.515 529.77L768.55 532.2L772.799 538.882L775.834 548.6L776.441 552.852V567.431L774.013 577.149L770.978 582.616L766.122 588.083L763.088 590.513L763.694 592.335L771.585 597.194L775.834 602.054L779.476 609.95L780.69 617.239V633.033L778.869 641.536L774.013 651.255L768.55 657.33L760.053 662.189L750.948 664.619L743.057 665.833L734.559 666.441L713.315 667.048H673.254L628.338 666.441V520.659Z" fill="#142A68"/>
<path d="M970.676 520.659H1146.7V553.46H1080.54V665.226L1079.33 666.441H1038.66L1037.44 665.226V553.46H970.676V520.659Z" fill="#142A68"/>
<path d="M417.109 519.444H472.345L473.559 520.659L476.594 528.555L484.484 546.171L491.768 563.786L498.445 578.972L505.729 596.587L509.37 606.306L508.764 610.558L503.908 624.529L502.694 628.173L477.201 627.566L473.559 620.277L466.275 603.876L457.777 585.046L456.563 580.187H455.349V667.656L454.742 668.263L415.896 667.656L416.502 665.226V520.052L417.109 519.444Z" fill="#142A68"/>
<path d="M551.252 519.444H605.273L605.88 543.741L605.273 667.656H567.033V580.187L565.819 581.401L560.964 592.942L555.501 604.484L546.396 625.743L544.575 628.781H528.794L519.689 628.173L513.619 609.95L514.226 604.484L522.117 583.831L526.973 570.468L534.863 551.638L543.361 530.985L548.824 520.052L551.252 519.444Z" fill="#142A68"/>
<path d="M96.624 519.444H139.72L140.327 634.247H233.195L231.374 639.714L224.09 657.937L221.662 663.404L219.841 667.656L99.6589 668.263L96.624 667.656V519.444Z" fill="#142A68"/>
<path d="M869.916 551.03H887.519L902.693 552.245L908.156 553.459L913.012 555.889L914.833 558.319L916.654 566.823L917.868 580.794V604.483L916.654 619.669L914.226 628.78L911.191 631.817L906.942 633.64L896.624 635.462L889.947 636.069H868.702L852.921 634.247L846.244 632.425L843.209 629.388L841.388 625.136L840.174 620.276L839.567 614.809V579.579L840.781 566.215L842.602 557.104L844.423 555.282L851.707 552.852L860.205 551.637L869.916 551.03Z" fill="#FDFEFE"/>
<path d="M1035.01 699.849H1042.3L1048.98 701.671L1053.83 705.316L1057.47 710.783L1058.69 714.427L1059.29 718.679V725.968L1057.47 733.257L1052.62 738.724L1051.4 739.332L1052.62 741.761L1056.87 746.621L1059.29 750.873L1060.51 758.769V764.236L1059.29 773.348L1056.26 778.814L1052.01 783.066L1045.94 786.103L1043.51 786.711H1034.41L1028.34 784.281L1022.88 780.029L1019.23 773.955L1018.02 770.31V753.303L1021.66 746.013L1024.7 742.369L1027.73 741.154L1024.7 738.117L1020.45 733.257L1019.23 729.613V715.035L1021.05 710.175L1023.48 706.531L1028.34 702.279L1031.98 700.457L1035.01 699.849Z" fill="#FDFEFE"/>
<path d="M967.641 701.064H1004.67L1005.27 701.671V713.82L980.994 714.427L980.387 731.435L987.671 727.791H993.741L999.204 729.613L1003.45 733.865L1005.27 738.724V772.133L1002.85 778.207L999.811 781.851L993.741 785.496L988.885 786.711H982.815L976.745 784.889L971.283 780.637L967.641 774.562L966.427 770.918V764.844L967.034 764.236H978.566L980.994 770.31L983.422 772.74H988.885L991.92 770.31L992.527 767.881V742.976L991.313 738.724L989.492 738.117H985.243L982.208 741.154L980.994 744.191L980.387 747.228H967.641V701.064Z" fill="#FDFEFE"/>
<path d="M835.318 701.064H842.602L848.065 702.886L853.528 706.531L858.383 713.212L860.204 719.894L859.597 729.613L857.776 735.08L852.921 744.799L838.96 766.058L834.104 773.348L858.99 773.955L859.597 774.562V786.103L858.99 786.711H818.323L817.716 786.103V774.562L823.786 766.666L829.855 756.947L835.925 747.836L843.209 735.08L845.637 729.006L846.244 726.576V719.894L844.423 716.25L841.388 713.82H836.532L834.104 715.035L831.676 720.502L830.462 727.791L829.855 728.398H819.537L817.716 727.183V721.109L819.537 713.82L823.179 707.746L827.427 704.101L832.283 701.671L835.318 701.064Z" fill="#FDFEFE"/>
<path d="M886.305 699.849H892.982L899.052 701.671L903.908 705.316L906.335 708.353L908.763 713.82L909.37 716.857V725.968L907.549 733.257L902.694 738.724L900.873 740.547L905.729 744.799L909.37 750.873L910.584 756.34V765.451L909.37 772.74L906.335 778.207L903.908 781.244L897.838 784.889L894.803 786.103L891.161 786.711H885.698L879.628 784.889L874.166 781.244L870.524 776.992L868.096 770.918V764.844L868.703 764.236L879.628 763.629L881.449 766.666L883.27 770.918L885.698 772.74H891.768L894.803 770.918H896.017L896.624 767.273V756.947L894.196 751.48L891.161 749.051L888.126 747.836L883.27 746.621L882.663 744.799L883.27 741.154V736.902L884.484 735.687L890.554 734.472L894.196 732.043L896.017 728.398L896.624 725.361V717.464L895.41 713.212L892.982 712.605H888.733L885.698 714.427L884.484 716.857L883.27 723.539L882.663 724.146H871.131L870.524 723.539V716.25L872.952 709.568L877.2 704.101L883.27 700.457L886.305 699.849Z" fill="#FDFEFE"/>
<path d="M671.434 606.306H715.137L726.669 606.913L732.739 608.735L735.167 611.165L736.381 618.454L735.774 627.566L733.953 631.21L729.704 633.64L720.6 634.855H671.434L670.827 631.817V606.913L671.434 606.306Z" fill="#FDFEFE"/>
<path d="M323.027 544.956L324.848 545.563L330.918 560.142L337.595 575.327L344.272 591.12L349.734 602.661L350.341 606.306H298.748L299.355 603.269L305.425 590.513L313.316 569.86L319.992 552.245L323.027 544.956Z" fill="#FDFEFE"/>
<path d="M671.434 552.245H721.207L726.669 553.46L729.704 555.889L732.132 560.749V568.038L729.704 574.72L728.49 575.934L718.172 577.757H671.434L670.827 574.72V552.852L671.434 552.245Z" fill="#FDFEFE"/>
<path d="M920.295 701.064H957.321L957.928 701.671V713.212L954.286 729.006L944.575 767.273L940.326 784.889L939.112 786.711H928.793L929.4 781.244L936.077 753.303L939.112 737.509L943.968 718.679L945.182 714.427H920.295L919.688 713.82V701.671L920.295 701.064Z" fill="#FDFEFE"/>
<path d="M536.077 197.509L548.217 199.331L599.203 209.05V210.265L584.029 213.909L556.108 219.376L553.073 218.161L546.396 212.694L542.147 209.05L540.933 208.442L542.147 212.087L547.61 222.413L552.466 232.132V233.954L550.645 233.347L546.396 228.487L543.968 225.45L540.326 222.413L536.077 217.554L528.794 210.265L528.187 209.05V202.976L529.4 199.938L536.077 197.509Z" fill="#142A68"/>
<path d="M1038.05 749.051L1042.91 749.658L1045.94 753.303L1047.16 757.554V766.058L1045.33 770.31L1041.69 773.348H1036.23L1031.98 769.703L1030.77 765.451V758.162L1032.59 752.695L1035.62 749.658L1038.05 749.051Z" fill="#142A68"/>
<path d="M1036.23 711.998H1041.09L1044.12 713.82L1046.55 718.072L1047.16 721.109L1046.55 729.005L1044.73 732.65L1041.69 734.472H1036.23L1031.98 730.828L1030.77 725.968V719.287L1032.59 715.035L1035.02 712.605L1036.23 711.998Z" fill="#142A68"/>
<path d="M542.754 630.603H543.968L542.147 636.069L531.828 660.366L530.614 663.404L528.793 662.189L523.938 645.181L525.151 642.751L536.077 634.855L540.326 631.817L542.754 630.603Z" fill="#142A68"/>
<path d="M509.977 654.292L513.619 655.507L522.116 662.189L528.186 667.048V668.263L494.802 667.656L494.195 665.226L503.3 659.152L509.977 654.292Z" fill="#142A68"/>
<path d="M478.414 629.995L482.663 632.425L488.733 637.284L494.803 641.536L497.23 643.358L496.016 648.825L492.375 659.759L490.554 660.366L485.698 648.218L478.414 631.21V629.995Z" fill="#142A68"/>
</svg>
